<svg width="489" height="423" viewBox="0 0 489 423" fill="none" xmlns="http://www.w3.org/2000/svg">
<path d="M319.136 358.072L362.153 369.596C362.153 369.596 376.283 350.137 369.997 332.048C357.174 295.142 391.047 286.709 404.695 281.097C425.278 272.633 439.65 256.376 416.991 241.551C394.332 226.727 429.946 195.568 465.196 186.595C499.692 177.814 503.672 112.644 427.23 124.93C381.579 132.267 376.176 176.134 368.074 197.65C359.973 219.167 326.021 212.03 329.958 242.022C333.322 267.639 347.221 289.386 328.635 301.399C310.05 313.413 303.64 330.748 319.136 358.072Z" fill="url(#paint0_linear_9_57)"/>
<mask id="mask0_9_57" style="mask-type:luminance" maskUnits="userSpaceOnUse" x="310" y="123" width="179" height="247">
<path d="M319.136 358.072L362.153 369.596C362.153 369.596 376.283 350.137 369.997 332.048C357.174 295.142 391.047 286.709 404.695 281.097C425.278 272.633 439.65 256.376 416.991 241.551C394.332 226.727 429.946 195.568 465.196 186.595C499.692 177.814 503.672 112.644 427.23 124.93C381.579 132.267 376.176 176.134 368.074 197.65C359.973 219.167 326.021 212.03 329.958 242.022C333.322 267.639 347.221 289.386 328.635 301.399C310.05 313.413 303.64 330.748 319.136 358.072Z" fill="white"/>
</mask>
<g mask="url(#mask0_9_57)">
<path d="M319.136 358.072L362.153 369.596C362.153 369.596 376.283 350.137 369.997 332.048C357.174 295.142 391.047 286.709 404.695 281.097C425.278 272.633 437.436 257.83 420.086 241.466C400.455 222.951 429.945 195.568 465.196 186.595C499.692 177.814 503.672 112.644 427.23 124.93C381.579 132.267 376.176 176.134 368.074 197.65C359.973 219.167 326.021 212.03 329.958 242.022C333.322 267.639 347.221 289.386 328.635 301.399C310.05 313.413 303.64 330.748 319.136 358.072Z" fill="url(#paint1_linear_9_57)"/>
</g>
<mask id="mask1_9_57" style="mask-type:luminance" maskUnits="userSpaceOnUse" x="310" y="123" width="179" height="247">
<path d="M319.136 358.072L362.153 369.596C362.153 369.596 376.283 350.137 369.997 332.048C357.174 295.142 391.047 286.709 404.695 281.097C425.278 272.633 439.65 256.376 416.991 241.551C394.332 226.727 429.946 195.568 465.196 186.595C499.692 177.814 503.672 112.644 427.23 124.93C381.579 132.267 376.176 176.134 368.074 197.65C359.973 219.167 326.021 212.03 329.958 242.022C333.322 267.639 347.221 289.386 328.635 301.399C310.05 313.413 303.64 330.748 319.136 358.072Z" fill="white"/>
</mask>
<g mask="url(#mask1_9_57)">
<path d="M336.663 366.973L337.601 367.052C337.651 366.482 342.847 309.487 365.38 254.508C386.139 203.858 426.289 144.604 499.673 149.957L499.743 149.037C467.076 146.654 438.166 156.653 413.817 178.756C394.366 196.413 377.773 221.79 364.5 254.181C341.919 309.287 336.713 366.402 336.663 366.973Z" fill="#FCFDFE"/>
<path d="M404.049 188.423L404.981 188.555C409.445 158.155 432.518 119.455 432.75 119.068L431.939 118.6C431.706 118.989 408.539 157.846 404.049 188.423Z" fill="#FCFDFE"/>
<path d="M420.685 174.132C456.462 163.653 482.526 180.263 482.785 180.432L483.306 179.664C483.044 179.492 456.631 162.641 420.415 173.248L420.685 174.132Z" fill="#FCFDFE"/>
<path d="M352.647 291.238C374.504 251.992 435.607 257.301 436.198 257.401L436.419 256.505C435.849 256.352 373.871 251.201 351.82 290.796L352.647 291.238Z" fill="#FCFDFE"/>
<path d="M357.325 273.38L358.265 273.437C360.062 244.96 335.412 218.43 335.162 218.165L334.47 218.79C334.717 219.053 359.098 245.3 357.325 273.38Z" fill="#FCFDFE"/>
<path d="M338.62 358.101C344.485 342.117 371.884 335.558 372.16 335.493L371.942 334.596C370.795 334.863 343.771 341.333 337.734 357.788L338.62 358.101Z" fill="#FCFDFE"/>
<path d="M339.665 344.588L340.602 344.677C341.939 331.311 326.213 311.809 321.045 305.401C320.314 304.495 319.684 303.713 319.599 303.552L318.756 303.962C318.872 304.191 319.289 304.712 320.306 305.973C325.416 312.309 340.965 331.592 339.665 344.588Z" fill="#FCFDFE"/>
</g>
<path d="M376.496 233.619C385.641 240.144 386.058 250.889 385.116 258.71C384.144 259.186 383.708 259.703 382.84 260.395C374.995 266.636 370.292 267.66 361.569 272.615C359.691 273.681 353.209 275.169 350.521 275.61L345.495 276.354C345.495 276.354 326.482 258.921 335.349 247.287C344.217 235.652 328.301 216.85 321.122 205.871C316.714 199.129 316.901 194.662 315.687 191.93C302.835 163.008 289.891 158.986 291.606 147.065C293.499 133.905 309.816 135.04 312.647 120.83C315.844 104.785 297.185 92.5657 303.672 78.0443C304.784 75.5546 305.996 73.0262 308.691 70.5429C315.342 64.413 323.999 65.7181 326.313 56.6462C330.962 38.4111 347.143 24.8601 365.279 32.5552C383.178 40.1499 383.672 72.2396 361.665 108.853C349.042 136.639 351.475 141.958 359.954 153.676C365.893 161.884 387.542 180.281 379.201 195.831C370.86 211.382 366.041 226.16 376.496 233.619Z" fill="url(#paint2_linear_9_57)"/>
<mask id="mask2_9_57" style="mask-type:luminance" maskUnits="userSpaceOnUse" x="302" y="30" width="84" height="247">
<path d="M383.172 268.607L346.634 276.771C346.634 276.771 326.482 258.921 335.349 247.287C344.217 235.652 328.301 216.85 321.122 205.871C301.644 176.082 340.537 160.86 318.923 120.612C313.174 109.907 298.232 91.4099 303.672 78.0445C309.87 62.8175 323.338 68.3131 326.313 56.6462C330.963 38.4111 347.143 24.8602 365.279 32.5552C383.179 40.1499 383.672 72.2398 361.665 108.853C349.043 136.64 351.475 141.958 359.954 153.676C365.893 161.884 387.542 180.281 379.201 195.832C370.859 211.382 366.041 226.16 376.496 233.619C392.404 244.97 383.172 268.607 383.172 268.607Z" fill="white"/>
</mask>
<g mask="url(#mask2_9_57)">
<g opacity="0.5">
<path d="M366.452 270.668L365.752 270.913C364.338 267.139 362.964 263.315 361.667 259.547C352.066 231.648 345.687 203.825 342.706 176.851C340.181 153.995 340.055 131.428 342.332 109.775C344.163 92.3626 347.55 75.4445 352.401 59.4908C355.811 48.2758 359.903 37.6495 364.564 27.9075C365.376 26.2096 366.308 24.511 367.209 22.8684C368.41 20.6799 369.652 18.4168 370.619 16.1378L371.306 16.3615C370.326 18.6719 369.076 20.9503 367.867 23.1537C366.97 24.7882 366.043 26.4782 365.239 28.159C360.592 37.8704 356.512 48.4649 353.112 59.6483C348.273 75.5623 344.894 92.4402 343.067 109.813C340.795 131.42 340.921 153.943 343.441 176.755C346.417 203.683 352.786 231.461 362.372 259.317C363.667 263.08 365.04 266.899 366.452 270.668Z" fill="#FCFDFE"/>
<path d="M341.479 136.212L340.74 136.249C340.35 107.146 306.582 69.3397 306.241 68.9614L306.818 68.5153C307.161 68.8956 341.086 106.876 341.479 136.212Z" fill="#FCFDFE"/>
<path d="M350.346 217.239L349.613 217.354C346.827 197.701 374.585 168.084 374.866 167.787L375.415 168.22C375.137 168.515 347.603 197.893 350.346 217.239Z" fill="#FCFDFE"/>
<path d="M352.983 228.224L352.278 228.456C348.003 216.219 334.958 201.906 315.544 188.154C314.568 187.462 314.568 187.462 314.524 187.342L315.225 187.102L314.874 187.222L315.155 186.993C315.214 187.046 315.583 187.307 316.01 187.61C335.534 201.441 348.665 215.864 352.983 228.224Z" fill="#FCFDFE"/>
<path d="M363.979 263.743L363.241 263.783C362.986 249.469 380.765 235.183 380.944 235.041L381.414 235.547C381.237 235.687 363.73 249.757 363.979 263.743Z" fill="#FCFDFE"/>
<path d="M365.472 271.2C357.617 262.477 346.684 255.647 332.047 250.32L332.344 249.687C347.093 255.055 358.118 261.946 366.049 270.755L365.472 271.2Z" fill="#FCFDFE"/>
<path d="M350.421 69.0807L349.683 69.0794C350.449 52.8496 347.164 35.7932 346.084 30.1882C345.823 28.8314 345.733 28.3535 345.733 28.1809L346.472 28.1538C346.474 28.2856 346.623 29.0611 346.812 30.0431C347.895 35.666 351.191 52.7769 350.421 69.0807Z" fill="#FCFDFE"/>
<path d="M344.932 95.4628L344.236 95.2616C349.795 80.7242 379.766 66.6274 381.039 66.0343L381.351 66.6377C381.042 66.7815 350.388 81.1969 344.932 95.4628Z" fill="#FCFDFE"/>
</g>
</g>
<path d="M363.751 289.06C361.46 289.042 362.742 277.313 354.409 263.456C352.328 259.994 342.31 240.34 325.514 241.698C322.253 241.962 318.993 242.225 315.732 242.489C312.075 235.664 309.919 228.568 319.44 224.687C334.226 218.66 331.218 193.631 325.811 185.279C319.119 174.941 304.072 150.575 326.772 140.926C345.669 132.892 359.639 131.28 357.847 107.69C356.055 84.1006 367.906 67.8825 391.069 66.6174C415.446 65.286 431.245 33.2261 452.4 40.8899C489.262 54.2443 464.978 109.497 425.026 129.312C385.074 149.128 411.045 160.331 414.771 179.374C415.015 181.161 415.252 183.95 414.895 187.294C412.693 207.88 391.756 213.811 378.465 232C360.339 256.805 367.612 289.092 363.751 289.06Z" fill="url(#paint3_linear_9_57)"/>
<mask id="mask3_9_57" style="mask-type:luminance" maskUnits="userSpaceOnUse" x="313" y="39" width="158" height="209">
<path d="M371.021 242.191L318.287 247.905C314.341 241.334 308.805 229.022 319.44 224.687C334.226 218.66 331.218 193.631 325.811 185.279C319.119 174.942 304.072 150.576 326.772 140.926C345.669 132.892 359.639 131.28 357.847 107.691C356.055 84.1009 367.906 67.8828 391.07 66.6177C415.446 65.2861 431.245 33.2262 452.401 40.8902C489.262 54.2444 464.978 109.496 425.026 129.312C385.074 149.128 411.045 160.331 414.771 179.374C419.858 205.372 380.837 204.207 372.121 215.661C365.289 224.639 368.264 235.594 371.021 242.191Z" fill="white"/>
</mask>
<g mask="url(#mask3_9_57)">
<g opacity="0.5">
<path d="M345.219 237.21L344.072 237.127C350.606 159.569 397.808 85.3228 467.258 43.3641L467.887 44.2551C398.73 86.037 351.726 159.973 345.219 237.21Z" fill="#FCFDFE"/>
<path d="M352.698 195.207L351.556 195.335C347.565 164.986 316.362 144.489 316.047 144.286L316.707 143.413C317.026 143.619 348.645 164.379 352.698 195.207Z" fill="#FCFDFE"/>
<path d="M346.842 222.973L345.771 222.584C358.007 193.728 417.951 183.097 418.555 182.993L418.765 184.039C418.168 184.142 358.845 194.665 346.842 222.973Z" fill="#FCFDFE"/>
<path d="M384.617 124.903L383.513 124.601C391.072 101.027 370.738 68.3474 370.532 68.02L371.526 67.4839C371.735 67.8149 392.315 100.894 384.617 124.903Z" fill="#FCFDFE"/>
<path d="M416.362 85.1664L415.645 84.3337C439.35 66.8887 480.089 70.471 480.498 70.5098L480.383 71.5685C479.979 71.5301 439.697 67.9929 416.362 85.1664Z" fill="#FCFDFE"/>
</g>
</g>
<path d="M394.765 403.913L298.434 399.076V139.411L394.765 136.372V403.913Z" fill="url(#paint4_linear_9_57)"/>
<path d="M464.667 398.122L394.765 403.913V136.372L464.667 140.826V398.122Z" fill="url(#paint5_linear_9_57)"/>
<path d="M230.06 413.535L137.057 407.716V268.975L230.06 271.597V413.535Z" fill="url(#paint6_linear_9_57)"/>
<path d="M311.41 406.747L230.06 413.535V271.597L311.41 269.933V406.747Z" fill="url(#paint7_linear_9_57)"/>
<path d="M137.057 268.975L225.513 265.218L311.41 269.933L229.091 272.92L137.057 268.975Z" fill="url(#paint8_linear_9_57)"/>
<path d="M103.038 422.534L13.9503 417.076V343.238L103.038 347.946V422.534Z" fill="url(#paint9_linear_9_57)"/>
<path d="M198.899 416.137L103.038 422.534V347.946L198.899 343.76V416.137Z" fill="url(#paint10_linear_9_57)"/>
<path d="M13.9503 343.238L103.309 340.003L198.899 343.76L103.038 347.946L13.9503 343.238Z" fill="url(#paint11_linear_9_57)"/>
<path d="M240.698 199.715C238.533 198.339 240.506 194.337 240.623 185.739C240.766 175.203 237.911 173.24 240.204 169.106C243.008 164.052 250.066 161.96 254.742 161.862C255.773 161.84 256.014 161.288 264.655 163.481C280.222 167.433 284.119 163.197 291.09 167.428C297.825 171.517 294.876 175.994 301.416 180.788C312.017 188.56 323.165 180.158 330.742 186.659C337.909 192.807 338.074 208.473 330.536 217.022C321.99 226.714 306.581 223.802 296.253 221.881C294.08 221.476 283.104 219.217 271.677 210.95C265.355 206.376 261.014 201.492 258.253 197.893C257.604 197.178 256.593 196.312 255.258 196.173C253.655 196.005 252.368 196.966 251.747 197.387C248.489 199.599 242.825 201.067 240.698 199.715Z" fill="url(#paint12_linear_9_57)"/>
<path d="M248.039 187.468C245.255 184.982 235.32 189.773 228.735 196.133C221 203.604 221.595 209.661 214.845 218.943C211.489 223.557 205.735 229.769 195.541 235.21C196.263 236.978 196.984 238.747 197.706 240.515C202.635 240.806 212.311 240.635 221.339 234.857C227.61 230.843 230.837 225.525 237.034 215.052C243.254 204.542 251.519 190.576 248.039 187.468Z" fill="url(#paint13_linear_9_57)"/>
<path d="M185.291 329.569L193.046 325.001H196.546C196.546 325.001 197.739 329.351 197.603 329.569C196.044 332.073 188.783 333.979 184.252 334.137C183.5 334.163 182.45 334.166 182.179 333.632C181.72 332.727 183.772 330.829 185.291 329.569Z" fill="url(#paint14_linear_9_57)"/>
<path d="M193.184 320.017C193.682 322.845 193.051 324.319 192.372 325.145C191.893 325.726 191.468 325.891 188.629 328.297C187.69 329.093 187.212 329.519 187.32 329.742C187.445 329.997 188.273 329.859 190.063 329.437C193.962 328.518 195.922 328.04 196.4 327.12C196.834 326.287 196.451 325.911 196.476 323.642C196.492 322.148 196.802 320.945 197.046 320.193C195.759 320.134 194.471 320.076 193.184 320.017Z" fill="url(#paint15_linear_9_57)"/>
<path d="M187.577 297.607C187.577 297.607 184.073 301.705 184.643 306.197C185.214 310.689 191.35 304.122 192.205 301.902C193.061 299.682 194.061 296.52 194.061 296.52C194.061 296.52 189.757 293.896 187.577 297.607Z" fill="url(#paint16_linear_9_57)"/>
<path d="M188.914 291.194C188.914 291.194 189.864 295.969 188.051 298.488C187.148 299.743 185.93 300.808 186.288 301.829C186.528 302.514 187.44 303.006 188.212 302.928C189.69 302.779 190.509 300.559 191.087 298.992C191.941 296.678 192.417 291.727 192.417 291.727L188.914 291.194Z" fill="url(#paint17_linear_9_57)"/>
<path d="M191.706 295.219C190.629 294.835 189.551 294.45 188.474 294.065C186.793 290.301 184.741 284.12 185.426 276.606C187.189 257.284 205.421 247.045 207.447 245.95C212.414 248.393 217.446 251.839 217.628 256.184C217.857 261.638 210.277 264.52 203.151 272.496C198.874 277.282 194.303 284.415 191.706 295.219Z" fill="url(#paint18_linear_9_57)"/>
<path d="M192.868 322.227C189.307 308.595 190.217 297.47 191.244 291.062C192.797 281.376 195.954 261.673 209.375 254.327C212.305 252.722 216.495 251.286 221.601 246.825C225.865 243.101 228.576 239.183 230.211 236.423C248.16 231.263 264.715 233.354 272.02 242.789C272.864 243.879 274.977 246.244 275.386 249.731C276.308 257.598 268.422 267.07 259.572 269.048C248.325 271.561 241.8 260.242 231.835 264.008C229.048 265.061 226.685 267.672 221.958 272.893C215.945 279.535 212.566 285.664 211.287 288.117C207.479 295.42 204.592 300.811 204.17 307.797C204.072 309.425 204.014 312.713 202.069 316.259C200.576 318.982 198.552 320.797 197.046 321.919C195.653 322.021 194.261 322.124 192.868 322.227Z" fill="url(#paint19_linear_9_57)"/>
<path opacity="0.3" d="M275.386 249.731C274.977 246.244 272.864 243.879 272.019 242.789C264.714 233.354 248.159 231.263 230.211 236.423C228.576 239.183 225.865 243.101 221.601 246.825C216.495 251.286 212.305 252.722 209.375 254.327C201.18 258.813 196.815 267.905 194.302 276.512C198.031 270.846 201.222 269.339 203.692 269.312C207.227 269.274 208.807 272.237 213.028 271.832C217.539 271.4 218.571 267.743 222.228 267.323C223.323 267.198 224.67 267.363 226.288 268.207C228.446 265.991 230.056 264.68 231.835 264.008C241.799 260.242 248.324 271.561 259.572 269.047C268.421 267.07 276.308 257.598 275.386 249.731Z" fill="url(#paint20_linear_9_57)"/>
<path d="M202.167 260.424C204.199 260.318 207.327 260.257 211.101 260.623C229.009 262.357 233.946 271.04 248.748 273.159C252.249 273.66 267.838 275.892 274.59 267.058C279.438 260.716 278.704 249.789 273.402 245.491C271.158 243.672 268.937 243.723 254.566 243.85C249.154 243.898 243.741 243.915 238.329 243.983C215.42 244.269 211.039 242.714 206.871 246.428C204.926 248.16 202.083 251.882 202.167 260.424Z" fill="url(#paint21_linear_9_57)"/>
<path d="M250.531 188.379C250.531 188.379 277.264 180.738 280.037 199.92C282.695 218.306 269.078 226.743 275.274 245.366C275.992 247.525 224.385 237.637 224.385 237.637C231.274 229.213 232.875 222.264 233.04 217.432C233.22 212.135 231.662 209.727 233.04 203.465C233.04 203.465 234.577 196.477 240.121 190.477C240.917 189.616 241.866 188.719 250.531 188.379Z" fill="url(#paint22_linear_9_57)"/>
<path d="M267.702 241.435C267.676 241.435 267.649 241.432 267.623 241.425C267.372 241.359 242.404 234.847 227.658 234.037C227.489 234.027 227.359 233.885 227.369 233.719C227.379 233.554 227.502 233.428 227.693 233.435C242.502 234.249 267.531 240.777 267.781 240.843C267.945 240.886 268.043 241.051 267.999 241.212C267.962 241.346 267.838 241.435 267.702 241.435Z" fill="#F4F7FA"/>
<path d="M256.337 176.883C256.092 178.004 254.845 184.022 257.357 185.57C257.902 185.906 258.948 186.098 261.04 186.483C262.411 186.734 263.56 186.889 264.371 186.984C264.254 187.993 263.907 189.635 262.719 191.129C259.388 195.317 252.71 194.233 251.758 194.063C248.399 193.464 245.093 192.447 244.295 191.825C243.08 190.878 242.124 190.168 241.559 189.446C242.859 188.831 245.483 187.207 247.244 186.676C248.56 186.279 249.796 185.995 250.92 185.792C251.104 184.63 251.289 183.467 251.474 182.305C253.095 180.498 254.716 178.69 256.337 176.883Z" fill="url(#paint23_linear_9_57)"/>
<path d="M256.41 180.037C256.41 180.037 255.988 184.144 251.914 184.868C248.267 185.516 245.522 176.877 247.388 174.643C248.011 173.898 249.548 173.188 250.88 173.226C251.818 173.252 254.983 174.434 255.425 177.539C256.055 176.888 256.841 176.7 257.228 176.973C257.719 177.319 257.456 178.324 257.396 178.552C257.19 179.341 256.664 179.83 256.41 180.037Z" fill="url(#paint24_linear_9_57)"/>
<path d="M218.937 239.791L259.852 241.742C260.416 241.769 260.929 242.065 261.227 242.534L262.359 244.315C262.923 245.202 262.246 246.345 261.181 246.305L217.841 244.687L218.937 239.791Z" fill="url(#paint25_linear_9_57)"/>
<path d="M176.381 217.458L218.651 218.261C219.902 218.285 221.047 218.953 221.665 220.019L236.303 245.261L191.66 243.518C190.435 243.47 189.317 242.819 188.687 241.788L175.125 219.581C174.548 218.636 175.257 217.437 176.381 217.458Z" fill="url(#paint26_linear_9_57)"/>
<path opacity="0.3" d="M221.666 220.019C221.048 218.953 219.902 218.285 218.652 218.261L217.725 218.243C217.587 219.581 217.168 220.804 216.333 221.792C213.727 224.876 209.397 222.974 206.169 226.237C202.623 229.822 205.899 234.089 202.729 237.426C199.392 240.938 193.997 238.078 187.794 240.326L188.687 241.788C189.317 242.819 190.435 243.47 191.661 243.518L236.303 245.261L221.666 220.019Z" fill="url(#paint27_linear_9_57)"/>
<path d="M256.518 238.451C255.986 237.072 255.453 235.694 254.921 234.315C260.806 232.733 268.947 230.397 277.296 227.472C278.604 227.014 280.157 226.447 280.666 225.098C282.094 221.315 273.017 217.394 269.489 209.134C266.226 201.493 268.022 190.891 271.809 189.638C279.69 187.032 307.636 221.128 297.655 235.501C292.013 243.626 274.618 244.919 256.518 238.451Z" fill="url(#paint28_linear_9_57)"/>
<path d="M254.921 234.315C251.226 232.391 246.802 234.364 246.517 234.496C245.706 234.871 244.524 235.54 243.33 236.736C243.195 236.916 241.592 239.093 242.176 239.791C242.644 240.35 244.457 239.886 246.635 238.558C247.548 238.433 248.908 238.318 250.536 238.465C253.527 238.735 254.897 239.661 255.983 238.862C256.778 238.277 257.049 237.039 256.763 236.119C256.455 235.131 255.546 234.641 254.921 234.315Z" fill="url(#paint29_linear_9_57)"/>
<path d="M285.288 9.34202L59.9763 0.320855C56.0778 0.164899 53.0444 3.14488 53.0444 6.97738V14.6925V18.8059V130.129C53.0444 133.962 55.9613 137.344 59.8598 137.344H285.305C288.698 137.344 291.41 134.178 291.41 130.613V27.0475V23.2206V16.0433C291.41 12.478 288.681 9.47783 285.288 9.34202Z" fill="#B7C0CE"/>
<path d="M55.1742 14.6925V130.129C55.1742 133.962 58.341 137.068 62.2394 137.068H287.684C291.078 137.068 293.823 134.178 293.823 130.613V23.2206L55.1742 14.6925Z" fill="#D8DEE8"/>
<path d="M287.684 9.34202L62.2392 0.320855C58.3409 0.164899 55.1741 3.14488 55.1741 6.97738V18.8059L293.823 27.0475V16.0433C293.823 12.478 291.077 9.47783 287.684 9.34202Z" fill="url(#paint30_linear_9_57)"/>
<path d="M71.3644 9.8976C71.3644 11.5933 69.9678 12.9172 68.2436 12.8544C66.5176 12.7915 65.1172 11.3635 65.1172 9.66441C65.1172 7.96554 66.5176 6.64183 68.2436 6.70774C69.9678 6.77382 71.3644 8.20172 71.3644 9.8976Z" fill="white"/>
<path d="M103.659 122.115L85.9768 122.036V36.1755L103.659 36.7013V122.115Z" fill="white"/>
<path opacity="0.65" d="M103.659 122.115L85.9768 122.036V81.2716L103.659 81.5622V122.115Z" fill="url(#paint31_linear_9_57)"/>
<path d="M127.955 122.222L110.527 122.145V36.9055L127.955 37.4235V122.222Z" fill="white"/>
<path opacity="0.65" d="M127.955 122.222L110.527 122.145V101.91L127.955 102.092V122.222Z" fill="url(#paint32_linear_9_57)"/>
<path d="M151.904 122.328L134.725 122.252V37.6248L151.904 38.1355V122.328Z" fill="white"/>
<path opacity="0.65" d="M151.904 122.328L134.725 122.252V111.705L151.904 111.835V122.328Z" fill="url(#paint33_linear_9_57)"/>
<path d="M175.513 122.433L158.578 122.358V38.3339L175.513 38.8374V122.433Z" fill="white"/>
<path opacity="0.65" d="M175.513 122.433L158.578 122.358V56.535L175.513 56.9456V122.433Z" fill="url(#paint34_linear_9_57)"/>
<path d="M198.79 122.536L182.093 122.462V39.0331L198.79 39.5294V122.536Z" fill="white"/>
<path opacity="0.65" d="M198.79 122.536L182.093 122.462V64.532L198.79 64.8994V122.536Z" fill="url(#paint35_linear_9_57)"/>
<path d="M221.741 122.638L205.278 122.565V39.7224L221.741 40.2117V122.638Z" fill="white"/>
<path opacity="0.65" d="M221.741 122.638L205.278 122.565V51.7676L221.741 52.1965V122.638Z" fill="url(#paint36_linear_9_57)"/>
<path d="M244.373 122.738L228.138 122.666V40.4019L244.373 40.8846V122.738Z" fill="white"/>
<path opacity="0.65" d="M244.373 122.738L228.138 122.666V72.1358L244.373 72.46V122.738Z" fill="url(#paint37_linear_9_57)"/>
<path d="M266.693 122.837L250.682 122.766V41.0722L266.693 41.5482V122.837Z" fill="white"/>
<path opacity="0.65" d="M266.693 122.837L250.682 122.766V94.4034L266.693 94.615V122.837Z" fill="url(#paint38_linear_9_57)"/>
<path d="M183.173 157.61L185.478 154.461C185.478 154.461 185.035 152.809 185.785 151.598C186.534 150.387 186.534 150.387 186.534 150.387C186.534 150.387 187.511 149.489 189.381 150.118C189.804 150.26 190.27 150.213 190.637 149.965C191.741 149.217 192.036 151.276 192.036 151.276C192.036 151.276 192.835 152.192 192.118 152.988C192.118 152.988 192.025 154.16 191.133 154.762C190.242 155.364 187.852 156.354 187.852 156.354L185.276 159.391L183.173 157.61Z" fill="url(#paint39_linear_9_57)"/>
<path d="M182.808 154.288C166.328 160.721 155.755 158.204 150.826 156.39C144.636 154.112 138.703 149.932 138.703 149.932C130.324 144.029 127.044 138.156 118.784 136.883C118.16 136.787 116.317 136.534 114.292 136.709C102.379 137.743 89.1163 153.195 90.8221 163.473C93.779 181.291 144.387 199.641 172.178 179.807C181.125 173.422 185.604 164.58 187.889 158.575C186.196 157.146 184.502 155.717 182.808 154.288Z" fill="url(#paint40_linear_9_57)"/>
<path d="M75.2234 339.357C74.5454 339.968 74.5026 341.395 74.4746 342.328C74.4618 342.745 74.4556 342.953 74.5119 343.097C74.9231 344.144 77.0426 344.13 80.3764 344.264C85.6446 344.475 87.2276 344.786 87.5901 343.998C87.9296 343.259 86.9274 342.143 86.8149 342.02C86.2091 341.359 85.5028 341.148 84.1411 340.797C81.6214 340.147 79.9254 339.811 79.4119 339.709C76.205 339.072 75.6687 338.956 75.2234 339.357Z" fill="url(#paint41_linear_9_57)"/>
<path d="M78.9184 334.208L79.1239 340.085C78.9597 340.36 77.1394 341.115 75.7699 340.314L74.7365 334.493L78.9184 334.208Z" fill="url(#paint42_linear_9_57)"/>
<path d="M119.6 338.544C118.694 339.425 118.407 341.12 119.105 341.999C119.791 342.863 120.924 342.301 124.037 342.555C127.371 342.828 128.201 343.647 130.504 343.152C131.434 342.952 133.087 342.434 133.091 341.79C133.094 341.338 132.282 341.062 129.578 340.013C125.739 338.525 125.76 338.456 124.938 338.278C122.871 337.831 120.796 337.381 119.6 338.544Z" fill="url(#paint43_linear_9_57)"/>
<path d="M122.031 333.317L123.408 338.867C123.266 339.153 121.51 340.041 120.082 339.345L117.883 333.914L122.031 333.317Z" fill="url(#paint44_linear_9_57)"/>
<path d="M113.664 212.923C112.904 231.29 113.057 251.995 114.902 274.577C116.725 296.896 119.881 317.142 123.554 334.991C121.386 335.443 119.219 335.895 117.051 336.347C111.898 331.107 105.483 322.948 102.783 311.752C101.108 304.802 101.982 301.322 101.141 292.838C99.8023 279.331 95.9941 272.091 92.2515 261.059C88.8883 251.145 85.0639 236.654 83.6349 217.477C93.6448 215.959 103.654 214.441 113.664 212.923Z" fill="url(#paint45_linear_9_57)"/>
<path opacity="0.3" d="M110.67 298.762C108.283 289.496 103.684 287.045 103.52 278.299C103.404 272.112 105.673 271.606 105.522 265.685C105.294 256.703 99.9255 251.993 97.2284 246.343C94.3799 240.376 93.2886 230.791 100.965 214.849C95.1886 215.725 89.4119 216.601 83.6351 217.477C85.0641 236.654 88.8886 251.145 92.2517 261.059C95.9943 272.091 99.8025 279.33 101.141 292.838C101.982 301.322 101.108 304.802 102.784 311.751C105.484 322.948 111.899 331.107 117.051 336.347C117.602 336.232 118.154 336.117 118.705 336.002C113.135 329.486 111.17 323.666 110.67 318.944C109.857 311.262 113.077 308.105 110.67 298.762Z" fill="url(#paint46_linear_9_57)"/>
<path d="M91.9958 211.775C89.4157 235.05 87.0443 258.773 84.9108 282.93C83.3094 301.058 81.8834 318.963 80.6208 336.641C78.4235 336.791 76.2258 336.941 74.0282 337.091C72.1284 333.131 69.6473 327.099 68.1388 319.455C66.3067 310.171 67.1429 304.758 66.638 295.209C66.0712 284.499 64.5314 282.092 62.3118 268.503C57.8067 240.924 55.5541 227.134 62.6986 219.004C65.0177 216.364 72.1944 209.814 91.9958 211.775Z" fill="url(#paint47_linear_9_57)"/>
<path d="M35.0839 139.396C46.9545 135.451 65.0669 131.08 87.2187 131.975C100.051 132.493 111.084 134.651 119.825 137.051C121.007 143.53 122.189 150.009 123.371 156.488C123.642 162.984 123.73 171.784 122.985 182.181C122.241 192.578 121.512 192.735 119.806 207.41C117.025 231.338 118.188 237.589 113.282 240.463C110.091 242.333 108.937 240.076 92.6526 238.494C81.7336 237.433 76.1611 236.941 70.6317 238.775C63.1019 241.272 60.5822 245.465 57.476 244.101C54.4974 242.792 54.118 237.751 53.7582 228.963C53.2032 215.407 53.2374 206.192 53.1863 202.894C52.9514 187.761 49.0418 176.206 44.0346 161.408C40.9028 152.152 37.604 144.661 35.0839 139.396Z" fill="url(#paint48_linear_9_57)"/>
<path d="M85.7519 116.983C85.5771 120.788 84.9801 123.781 84.4579 125.825C83.8598 128.167 83.4886 128.761 83.0301 129.235C82.3402 129.947 81.3218 130.522 75.688 131.583C72.6224 132.16 72.234 132.119 72.1512 132.41C71.7472 133.829 79.731 139.154 88.3191 138.42C93.5753 137.972 98.4806 135.303 98.2727 133.756C98.0635 132.199 92.8075 132.753 91.4063 129.883C90.4317 127.886 91.7927 125.195 93.3487 122.989C92.1008 120.37 86.9997 119.602 85.7519 116.983Z" fill="url(#paint49_linear_9_57)"/>
<path d="M95.3523 118.993C96.6709 117.455 96.8993 114.66 95.577 112.817C94.4391 111.231 92.5299 110.913 91.3869 110.723C88.0747 110.171 83.7953 111.315 82.1687 114.244C81.2052 115.981 82.8782 119.781 83.1354 120.462C83.427 121.232 84.0155 121.522 84.5421 122.12C85.2718 122.949 86.4133 124.267 88.2736 126.469C88.4607 125.858 88.736 125.104 89.1517 124.292C89.3118 123.98 89.9528 122.761 90.8763 121.77C92.7265 119.785 94.1025 120.451 95.3523 118.993Z" fill="url(#paint50_linear_9_57)"/>
<path d="M85.5532 124.557C85.5532 124.557 87.5522 128.195 91.9298 128.145C95.849 128.1 96.8887 119.545 94.4934 117.593C93.6941 116.942 92.041 116.602 90.6655 116.904C89.8531 117.082 89.5641 117.393 88.2309 117.659C87.001 117.904 86.6656 117.754 86.283 118.037C85.8045 118.391 85.4185 119.299 86.0466 121.849C85.3417 121.071 84.4628 120.74 83.8129 121C83.7094 121.042 83.4315 121.206 83.2656 121.469C82.666 122.421 83.5117 123.722 85.5532 124.557Z" fill="url(#paint51_linear_9_57)"/>
<path d="M86.1341 117.514C86.3149 117.662 85.7017 118.32 85.6056 119.293C85.4188 121.181 87.2494 123.555 89.2325 123.852C90.4048 124.027 90.7669 123.348 92.7261 123.248C93.9394 123.186 94.9354 123.389 95.5596 123.558C96.0589 125.665 95.3701 127.704 93.9024 128.59C92.3223 129.544 90.4101 128.815 89.6106 128.51C89.0759 128.306 87.3618 127.657 86.5355 126.041C85.6746 124.357 86.6605 123.421 85.6309 122.259C85.1115 121.673 84.4028 121.393 83.7586 120.277C83.5837 119.974 83.4704 119.708 83.402 119.53C84.4667 118.536 85.8722 117.3 86.1341 117.514Z" fill="url(#paint52_linear_9_57)"/>
<path d="M94.0999 124.253C94.0999 124.253 93.2329 124.641 91.7796 124.484C91.709 124.476 91.6297 124.492 91.6186 124.528C91.5779 124.662 92.4797 125.318 93.3543 125.126C93.9753 124.989 94.4822 124.447 94.4078 124.298C94.3764 124.235 94.2375 124.236 94.0999 124.253Z" fill="url(#paint53_linear_9_57)"/>
<path d="M46.0363 202.906L49.9659 202.691C49.9659 202.691 54.2714 199.16 56.2312 199.38C58.1909 199.601 61.1223 200.933 61.4798 201.213C61.8372 201.493 60.4072 203.059 58.9772 202.906C57.5473 202.754 54.3565 203.51 53.7858 204.745C53.215 205.98 50.7385 206.725 50.3179 206.001L45.0354 207.029L46.0363 202.906Z" fill="url(#paint54_linear_9_57)"/>
<path d="M47.2251 201.559C47.5002 204.719 46.7981 206.865 45.6262 208.336C40.4323 214.86 22.7808 212.192 12.2897 203.455C4.52405 196.987 0.412244 186.945 0.564055 177.946C0.860546 160.388 17.4623 143.183 42.1575 137.239C45.813 147.949 49.4685 158.66 53.124 169.371C37.8991 169.598 28.6491 180.848 30.0209 188.879C31.0428 194.861 38.1615 200.243 47.2251 201.559Z" fill="url(#paint55_linear_9_57)"/>
<path opacity="0.3" d="M106.952 232.608C98.9427 229.258 98.9891 222.326 91.5085 219.433C80.8342 215.305 69.0408 224.895 67.1993 222.236C65.2832 219.469 79.3685 210.983 77.495 202.614C76.0058 195.963 66.1735 197.142 60.9077 188.038C55.9122 179.401 60.7554 171.417 56.3318 168.416C54.7454 167.339 51.9472 166.914 46.6415 169.203C50.341 180.528 52.9938 190.515 53.1858 202.894C53.237 206.192 53.2028 215.407 53.7578 228.963C54.1176 237.751 54.497 242.792 57.4756 244.101C60.5818 245.465 63.1015 241.272 70.6312 238.775C76.1608 236.941 81.7332 237.434 92.6522 238.494C108.936 240.076 110.09 242.333 113.281 240.463C115.36 239.246 116.348 237.415 117.009 233.899C113.744 234.244 110.282 234 106.952 232.608Z" fill="url(#paint56_linear_9_57)"/>
<path d="M85.127 138.455C85.127 138.455 86.1127 143.613 87.6536 143.714C89.1944 143.815 90.3242 144.016 90.3242 144.016L92.048 137.708C91.429 137.895 90.7494 138.065 90.0124 138.2C88.1443 138.543 86.4747 138.557 85.127 138.455Z" fill="url(#paint57_linear_9_57)"/>
<path d="M86.9222 143.284C86.9222 143.284 83.4932 181.017 71.4746 187.058C71.7828 188.266 71.4746 198.083 71.4746 198.083C71.4746 198.083 82.6781 194.777 83.3167 194.995C83.9554 195.214 96.8853 174.207 90.3242 144.016L86.9222 143.284Z" fill="url(#paint58_linear_9_57)"/>
<path d="M178.572 170.685L233.151 63.5066L233.699 63.5239L180.57 172.091L178.572 170.685Z" fill="url(#paint59_linear_9_57)"/>
<path d="M181.528 164.157L183.255 159.061L183.193 154.305C183.182 153.484 183.393 152.674 183.803 151.957L184.477 150.781C184.864 150.107 185.462 149.572 186.182 149.256L189.493 147.804C189.493 147.804 189.399 149.115 188.533 149.689C187.668 150.263 186.696 153.297 186.696 153.297L187.592 155.962L190.121 151.627L192.066 145.361L193.209 147.865C193.6 148.721 193.663 149.687 193.388 150.585L191.821 155.694C191.435 156.955 190.606 158.042 189.483 158.764L188.74 159.242C187.193 160.236 186.132 161.808 185.802 163.591L185.013 167.867L181.528 164.157Z" fill="url(#paint60_linear_9_57)"/>
<path d="M311.343 385.828L313.235 381.744C313.944 380.213 313.523 378.375 312.293 377.634L307.395 374.685C308.722 371 309.65 367.104 310.118 363.073L315.586 362.698C316.995 362.601 318.133 361.157 318.133 359.472V354.992C318.133 353.308 316.995 352.006 315.586 352.085L310.262 352.383C309.895 348.32 309.049 344.446 307.791 340.832L312.293 337.559C312.437 337.454 312.568 337.333 312.689 337.203L313.266 338.671L320.66 329.759L311.006 328.951C310.583 328.414 310.013 328.091 309.41 328.02C308.872 327.958 308.308 328.095 307.802 328.456L303.355 331.623C301.285 328.367 298.814 325.464 296.015 323.002L296.35 322.316L303.147 323.677L304.01 312.648L293.688 310.979C292.501 310.53 291.159 311.098 290.506 312.418L287.94 317.604C284.644 315.998 287.376 314.306 283.629 313.817L287.548 308.16C287.548 306.398 276.069 305.223 274.518 305.223H270.367C268.796 305.223 267.518 306.672 267.518 308.458V314.515C263.641 315.096 259.903 316.306 256.389 318.057L263.478 312.951C263.478 312.951 250.991 310.632 249.57 311.552L245.77 314.013C244.332 314.944 243.839 316.981 244.67 318.557L247.545 324.009C244.399 326.755 243.06 328.34 240.679 331.965L234.002 330.488C232.527 329.6 230.634 330.202 229.777 331.839L227.489 336.206C226.626 337.854 227.139 339.905 228.631 340.782L234.014 343.945C232.522 348.009 231.514 352.333 231.075 356.822L224.616 357.184C222.878 357.281 221.464 358.884 221.464 360.764V365.764C221.464 367.468 222.628 368.796 224.141 368.941L224.14 368.943L231.48 370.094C232.087 373.834 233.106 377.383 234.482 380.684L228.631 384.852C227.138 385.915 226.626 388.03 227.489 389.57L229.777 393.652C230.634 395.182 244.237 396.112 244.237 396.112L239.918 390.174C242.281 393.285 245.03 395.981 248.08 398.182L244.67 405.075C243.839 406.755 244.332 408.73 245.77 409.482L249.57 411.469C249.81 411.594 250.061 411.673 250.317 411.716L250.302 411.786L262.157 413.218L263.317 404.448C264.696 404.655 266.098 404.782 267.518 404.82V412.323C267.518 413.656 268.231 414.712 269.245 415.081L269.193 415.3L280.939 416.737L281.174 402.512C283.324 401.712 285.396 400.719 287.374 399.555L290.506 405.494C290.895 406.232 291.528 406.669 292.228 406.779L292.228 406.781L303.579 408.287L299.691 397.8L298.122 398.272L295.535 393.3C298.255 390.653 300.676 387.63 302.736 384.322L307.801 387.298C309.045 388.029 310.63 387.369 311.343 385.828ZM272.448 381.986C261.335 382.956 252.117 373.398 252.117 360.616C252.117 347.833 261.334 337.141 272.448 336.742C283.287 336.354 291.88 345.95 291.88 358.167C291.88 370.385 283.287 381.039 272.448 381.986ZM319.911 357.441L327.601 353.874L319.911 352.959V357.441ZM310.472 387.892L319.269 389.055L320.553 386.115L313.266 381.773L310.472 387.892Z" fill="url(#paint61_linear_9_57)"/>
<path d="M326.921 353.742L321.627 354.042C321.263 349.99 320.422 346.128 319.171 342.524L323.647 339.258C324.87 338.366 325.289 336.481 324.584 335.043L322.703 331.206C321.993 329.76 320.418 329.299 319.181 330.183L314.76 333.343C312.701 330.098 310.245 327.203 307.462 324.75L310.006 319.526C310.736 318.028 310.303 316.13 309.037 315.284L305.651 313.021C304.37 312.165 302.728 312.69 301.984 314.198L299.433 319.371C296.155 317.77 292.613 316.679 288.875 316.193V310.22C288.875 308.458 287.629 307.03 286.087 307.031L281.96 307.033C280.398 307.033 279.128 308.478 279.128 310.26V316.3C275.273 316.88 271.557 318.088 268.062 319.835L265.305 314.522C264.495 312.96 262.695 312.435 261.283 313.353L257.504 315.808C256.075 316.737 255.585 318.768 256.411 320.34L259.269 325.775C256.141 328.515 253.345 331.743 250.976 335.361L245.804 332.24C244.338 331.355 242.456 331.957 241.604 333.589L239.33 337.945C238.472 339.589 238.981 341.634 240.465 342.507L245.817 345.659C244.333 349.711 243.331 354.024 242.894 358.499L236.473 358.863C234.745 358.961 233.339 360.56 233.339 362.434V367.419C233.339 369.294 234.745 370.715 236.473 370.596L243.065 370.139C243.621 374.456 244.72 378.534 246.282 382.291L240.465 386.449C238.981 387.509 238.472 389.618 239.33 391.154L241.604 395.223C242.456 396.748 244.338 397.113 245.804 396.043L251.687 391.752C254.037 394.853 256.769 397.539 259.801 399.733L256.411 406.607C255.585 408.283 256.076 410.253 257.504 411.001L261.283 412.981C262.695 413.721 264.495 412.969 265.305 411.305L268.666 404.405C271.984 405.581 275.495 406.249 279.128 406.345V413.826C279.128 415.608 280.399 416.892 281.961 416.696L286.088 416.178C287.63 415.985 288.876 414.4 288.876 412.638V405.24C292.4 404.343 295.751 402.929 298.871 401.088L301.984 407.008C302.728 408.423 304.371 408.741 305.651 407.724L309.037 405.035C310.303 404.029 310.736 402.077 310.007 400.67L306.985 394.848C309.69 392.207 312.097 389.192 314.145 385.892L319.182 388.858C320.418 389.586 321.994 388.927 322.703 387.391L324.584 383.318C325.289 381.791 324.871 379.958 323.648 379.22L318.778 376.281C320.096 372.606 321.02 368.721 321.485 364.701L326.922 364.324C328.322 364.227 329.455 362.787 329.455 361.107V356.64C329.455 354.96 328.322 353.663 326.921 353.742ZM284.029 383.574C272.98 384.546 263.815 375.02 263.815 362.274C263.815 349.529 272.98 338.863 284.029 338.461C294.806 338.069 303.35 347.634 303.35 359.817C303.35 371.999 294.806 382.627 284.029 383.574Z" fill="url(#paint62_linear_9_57)"/>
<path d="M397.444 403.143C397.444 403.143 398.384 406.876 398.414 408.229C398.444 409.582 383.256 411.467 383.02 410.471C382.784 409.474 385.326 407.66 387.162 406.946C388.997 406.232 394.381 404.289 394.381 404.289L397.444 403.143Z" fill="url(#paint63_linear_9_57)"/>
<path d="M393.436 399.662L394.307 404.328C394.307 404.328 396.171 405.335 397.659 404.328L398.021 399.146L393.436 399.662Z" fill="url(#paint64_linear_9_57)"/>
<path d="M425.143 407.139C425.143 407.139 426.083 410.873 426.113 412.226C426.142 413.578 410.955 415.464 410.719 414.467C410.482 413.471 413.025 411.657 414.86 410.943C416.696 410.229 422.08 408.286 422.08 408.286L425.143 407.139Z" fill="url(#paint65_linear_9_57)"/>
<path d="M421.134 403.658L422.005 408.324C422.005 408.324 423.87 409.332 425.357 408.324L425.719 403.143L421.134 403.658Z" fill="url(#paint66_linear_9_57)"/>
<path d="M386.162 276.638C384.686 280.278 383.211 283.918 381.735 287.557C381.951 307.65 383.023 329.433 385.375 352.633C387.125 369.894 389.407 386.197 392.017 401.463C394.398 401.168 396.778 400.872 399.158 400.578C402.063 393.586 405.309 383.085 404.657 370.487C403.977 357.347 399.779 355.925 399.01 343.353C398.014 327.059 404.619 322.171 406.727 302.311C407.533 294.716 407.689 284.867 405.585 273.097C399.11 274.277 392.636 275.458 386.162 276.638Z" fill="url(#paint67_linear_9_57)"/>
<path opacity="0.3" d="M405.584 273.097C402.088 273.734 398.592 274.372 395.095 275.01C389.633 286.334 388.782 297.741 390.304 302.638C392.456 309.566 396.809 311.497 397.158 318.596C397.504 325.619 393.442 327.766 391.446 336.233C390.064 342.095 390.982 347.313 392.874 357.509C396.685 378.049 402.304 383.98 398.586 391.104C397.53 393.129 395.53 395.598 391.387 397.688C391.596 398.95 391.804 400.215 392.017 401.463C394.397 401.168 396.777 400.872 399.158 400.578C402.063 393.585 405.308 383.085 404.656 370.487C403.976 357.347 399.779 355.925 399.01 343.353C398.013 327.058 404.618 322.171 406.727 302.311C407.533 294.717 407.689 284.867 405.584 273.097Z" fill="url(#paint68_linear_9_57)"/>
<path d="M396.157 282.197C400.91 299.615 405.378 318.306 409.298 338.192C414.031 362.203 417.367 384.928 419.678 406.089C422.306 405.957 424.934 405.823 427.562 405.69C436.257 384.843 435.778 371.21 433.565 362.483C432.712 359.12 430.607 352.561 429.434 342.602C428.617 335.66 428.637 330.326 428.682 323.913C428.782 309.851 430.038 306.685 429.382 295.987C428.765 285.947 428.392 280.872 425.231 278.141C416.902 270.945 397.618 281.388 396.157 282.197Z" fill="url(#paint69_linear_9_57)"/>
<path d="M319.854 241.731C319.854 241.731 314.08 241.246 313.245 240.329C312.41 239.411 311.141 237.942 311.016 237.101C310.89 236.26 309.775 237.516 310.786 239.34C311.797 241.164 308.928 240.778 308.48 240.734C307.451 240.633 303.524 240.52 303.637 240.758C303.75 240.997 303.17 242.05 305.96 243.288C308.401 244.373 311.308 243.667 312.895 243.742C314.482 243.816 314.482 243.816 314.482 243.816L318.692 244.131L319.854 241.731Z" fill="url(#paint70_linear_9_57)"/>
<path d="M316.469 239.087C316.215 240.974 315.961 242.86 315.707 244.746C319.531 247.873 327.985 253.866 339.748 254.765C360.484 256.351 381.048 241.308 384.877 224.389C386.773 216.01 385.224 204.254 379.911 202.364C378.437 201.839 376.221 201.914 371.653 204.921C359.464 212.947 358.427 223.487 351.693 230.617C346.847 235.748 337.318 240.946 316.469 239.087Z" fill="white"/>
<path d="M380.021 291.3C377.175 287.411 380.008 283.222 380.093 275.425C380.19 266.587 376.622 265.397 372.023 251.125C368.965 241.633 366.029 232.52 367.739 221.45C368.559 216.144 369.949 207.145 377.058 202.292C380.727 199.788 386 199.596 396.397 199.314C409.254 198.964 415.682 198.789 420.657 200.879C421.386 201.184 436.542 207.787 438.574 220.33C440.642 233.096 426.51 235.944 426.007 253.225C425.781 260.982 428.271 272.69 429.886 280.284C431.437 287.576 432.244 289.411 430.943 291.757C427.808 297.413 416.74 296.74 394.602 295.396C385.918 294.869 382.145 294.202 380.021 291.3Z" fill="white"/>
<path opacity="0.3" d="M410.297 251.685C411.496 254.951 415.028 257.184 418.009 265.123C418.653 266.838 423.237 279.044 418.866 282.481C416.342 284.466 413.67 281.291 407.156 281.361C395.867 281.481 391.275 291.15 383.735 289.2C382.426 288.861 380.67 288.059 378.817 286.044C378.642 288.005 378.836 289.681 380.021 291.3C382.145 294.202 385.919 294.869 394.602 295.397C416.74 296.741 427.808 297.414 430.943 291.757C432.244 289.411 431.437 287.576 429.886 280.284C428.271 272.69 425.781 260.982 426.007 253.225C426.51 235.944 440.642 233.096 438.574 220.33C438.022 216.917 436.483 213.961 434.542 211.434C417.022 220.038 406.531 241.421 410.297 251.685Z" fill="url(#paint71_linear_9_57)"/>
<path d="M396.033 186.605C396.033 186.605 396.63 191.265 398.398 194.65C399.995 197.71 407.197 199.147 408.682 199.741C410.166 200.336 406.235 202.723 402.15 203.452C398.066 204.181 386.232 204.189 383.987 202.825C381.742 201.462 385.575 201.276 388.427 199.988C391.28 198.7 392.519 192.932 391.791 190.416C391.063 187.899 396.033 186.605 396.033 186.605Z" fill="url(#paint72_linear_9_57)"/>
<path d="M389.381 185.421C387.077 183.532 386.759 183.315 386.468 182.622C385.301 179.841 387.24 175.754 390.124 174.559C390.274 174.497 392.21 173.717 393.037 174.503C393.74 175.17 392.874 176.235 393.437 177.582C393.965 178.844 395.118 178.851 397.379 180.382C399.241 181.643 400.399 182.427 400.749 183.63C401.472 186.11 398.658 190.008 395.894 190.125C394.9 190.167 394.59 189.692 389.381 185.421Z" fill="url(#paint73_linear_9_57)"/>
<path d="M395.656 190.535C395.656 190.535 393.591 193.234 390.063 192.673C386.904 192.17 387.125 185.139 389.301 183.848C390.027 183.417 391.404 183.34 392.477 183.747C393.111 183.987 393.305 184.274 394.349 184.647C395.311 184.991 395.601 184.91 395.874 185.184C396.217 185.526 396.416 186.306 395.593 188.29C396.259 187.745 397.009 187.583 397.501 187.87C397.58 187.916 397.784 188.082 397.885 188.314C398.251 189.155 397.408 190.104 395.656 190.535Z" fill="url(#paint74_linear_9_57)"/>
<path d="M435.351 277.799L435.233 275.158L431.795 277.71C431.084 277.025 429.458 275.658 427.065 275.335C424.369 274.973 421.395 276.03 421.392 276.864C421.389 277.533 423.296 278.057 423.591 278.138C423.714 278.172 423.835 278.2 423.954 278.226C423.124 278.788 422.741 279.464 423.418 280.241C425.529 282.664 431.806 280.441 432.028 280.389L432.027 280.387C433.502 279.96 435.18 278.003 435.351 277.799Z" fill="url(#paint75_linear_9_57)"/>
<path d="M432.428 277.27C432.428 277.27 428.256 276.166 429.049 277.596C429.843 279.026 431.456 279.503 431.456 279.503C431.456 279.503 434.758 278.801 432.428 277.27Z" fill="url(#paint76_linear_9_57)"/>
<path d="M420.723 229.429C417.599 223.482 415.013 214.206 418.009 199.893C446.144 208.284 462.095 232.163 458.282 252.385C455.139 269.055 439.5 278.283 436.004 280.241C435.004 278.421 434.004 276.602 433.005 274.782C436.84 269.855 441.029 262.686 439.724 254.984C437.915 244.306 427.047 241.467 420.723 229.429Z" fill="white"/>
<path d="M381.587 272.109L438.256 271.28L423.187 278.408L381.442 275.73L381.587 272.109Z" fill="url(#paint77_linear_9_57)"/>
<path d="M440.256 272.756C440.256 273.796 439.592 274.724 438.596 275.08L420.488 282.037L420.405 277.214L438.256 271.28C439.258 270.998 440.256 271.735 440.256 272.756Z" fill="url(#paint78_linear_9_57)"/>
<path d="M418.902 243.368L422.896 279.016C423.034 280.247 421.277 282.079 420.016 282.021L361.417 278.495C360.454 278.45 359.652 277.755 359.489 276.824L352.134 242.393C351.915 241.14 354.213 239.846 355.509 239.882L416.918 241.574C417.943 241.603 418.79 242.368 418.902 243.368Z" fill="url(#paint79_linear_9_57)"/>
<path d="M417.563 244.407L421.557 280.056C421.695 281.286 420.679 282.346 419.418 282.288L360.078 279.534C359.115 279.489 358.313 278.795 358.15 277.864L352.088 243.276C351.868 242.023 352.873 240.886 354.17 240.922L415.578 242.614C416.604 242.642 417.451 243.408 417.563 244.407Z" fill="url(#paint80_linear_9_57)"/>
<path opacity="0.3" d="M382.718 271.181C387.9 269.028 386.071 264.924 392.189 259.809C400.261 253.061 408.488 255.988 411.369 250.757C412.266 249.129 412.694 246.594 411.132 242.492L415.578 242.614C416.604 242.642 417.451 243.408 417.563 244.407L421.557 280.056C421.695 281.286 420.679 282.346 419.418 282.288L360.078 279.534C359.115 279.489 358.313 278.795 358.15 277.864L357.313 273.091C359.114 272.109 361.265 271.216 363.776 270.717C372.482 268.986 376.753 273.659 382.718 271.181Z" fill="url(#paint81_linear_9_57)"/>
<defs>
<linearGradient id="paint0_linear_9_57" x1="310.424" y1="246.495" x2="488.815" y2="246.495" gradientUnits="userSpaceOnUse">
<stop stop-color="#FF9085"/>
<stop offset="1" stop-color="#FB6FBB"/>
</linearGradient>
<linearGradient id="paint1_linear_9_57" x1="463.706" y1="133.069" x2="315.626" y2="351.461" gradientUnits="userSpaceOnUse">
<stop stop-color="#FF9085"/>
<stop offset="1" stop-color="#FB6FBB"/>
</linearGradient>
<linearGradient id="paint2_linear_9_57" x1="331.775" y1="29.3994" x2="343.719" y2="318.088" gradientUnits="userSpaceOnUse">
<stop offset="0.0036" stop-color="#E38DDD"/>
<stop offset="1" stop-color="#9571F6"/>
</linearGradient>
<linearGradient id="paint3_linear_9_57" x1="394.197" y1="111.788" x2="296.578" y2="329.406" gradientUnits="userSpaceOnUse">
<stop stop-color="#FCB148"/>
<stop offset="0.0521" stop-color="#FDBA46"/>
<stop offset="0.1424" stop-color="#FFC244"/>
<stop offset="0.3183" stop-color="#FFC444"/>
<stop offset="0.4849" stop-color="#FDB946"/>
<stop offset="0.7754" stop-color="#F99C4D"/>
<stop offset="0.8658" stop-color="#F8924F"/>
<stop offset="1" stop-color="#F8924F"/>
</linearGradient>
<linearGradient id="paint4_linear_9_57" x1="678.167" y1="140.538" x2="357.74" y2="278.315" gradientUnits="userSpaceOnUse">
<stop offset="0.0036" stop-color="#E38DDD"/>
<stop offset="1" stop-color="#9571F6"/>
</linearGradient>
<linearGradient id="paint5_linear_9_57" x1="412.583" y1="244.356" x2="534.239" y2="456.329" gradientUnits="userSpaceOnUse">
<stop offset="0.0036" stop-color="#E38DDD"/>
<stop offset="1" stop-color="#9571F6"/>
</linearGradient>
<linearGradient id="paint6_linear_9_57" x1="526.364" y1="205.687" x2="280.468" y2="311.417" gradientUnits="userSpaceOnUse">
<stop offset="0.0036" stop-color="#E38DDD"/>
<stop offset="1" stop-color="#9571F6"/>
</linearGradient>
<linearGradient id="paint7_linear_9_57" x1="263.276" y1="329.538" x2="336.558" y2="457.225" gradientUnits="userSpaceOnUse">
<stop offset="0.0036" stop-color="#E38DDD"/>
<stop offset="1" stop-color="#9571F6"/>
</linearGradient>
<linearGradient id="paint8_linear_9_57" x1="188.837" y1="211.578" x2="230.997" y2="283.331" gradientUnits="userSpaceOnUse">
<stop offset="0.0036" stop-color="#E38DDD"/>
<stop offset="1" stop-color="#9571F6"/>
</linearGradient>
<linearGradient id="paint9_linear_9_57" x1="438.525" y1="232.596" x2="229.643" y2="322.411" gradientUnits="userSpaceOnUse">
<stop offset="0.0036" stop-color="#E38DDD"/>
<stop offset="1" stop-color="#9571F6"/>
</linearGradient>
<linearGradient id="paint10_linear_9_57" x1="149.584" y1="380.884" x2="199.238" y2="467.4" gradientUnits="userSpaceOnUse">
<stop offset="0.0036" stop-color="#E38DDD"/>
<stop offset="1" stop-color="#9571F6"/>
</linearGradient>
<linearGradient id="paint11_linear_9_57" x1="62.5522" y1="271.765" x2="107.073" y2="347.537" gradientUnits="userSpaceOnUse">
<stop offset="0.0036" stop-color="#E38DDD"/>
<stop offset="1" stop-color="#9571F6"/>
</linearGradient>
<linearGradient id="paint12_linear_9_57" x1="234.375" y1="158.956" x2="348.004" y2="237.7" gradientUnits="userSpaceOnUse">
<stop stop-color="#311944"/>
<stop offset="1" stop-color="#6B3976"/>
</linearGradient>
<linearGradient id="paint13_linear_9_57" x1="223.217" y1="196.642" x2="220.363" y2="243.427" gradientUnits="userSpaceOnUse">
<stop stop-color="#FF9085"/>
<stop offset="1" stop-color="#FB6FBB"/>
</linearGradient>
<linearGradient id="paint14_linear_9_57" x1="182.113" y1="329.573" x2="197.614" y2="329.573" gradientUnits="userSpaceOnUse">
<stop stop-color="#311944"/>
<stop offset="1" stop-color="#6B3976"/>
</linearGradient>
<linearGradient id="paint15_linear_9_57" x1="189.424" y1="335.561" x2="211.728" y2="267.292" gradientUnits="userSpaceOnUse">
<stop stop-color="#FFC444"/>
<stop offset="0.9964" stop-color="#F36F56"/>
</linearGradient>
<linearGradient id="paint16_linear_9_57" x1="184.581" y1="301.677" x2="194.06" y2="301.677" gradientUnits="userSpaceOnUse">
<stop stop-color="#311944"/>
<stop offset="1" stop-color="#6B3976"/>
</linearGradient>
<linearGradient id="paint17_linear_9_57" x1="179.086" y1="327.19" x2="194.016" y2="281.493" gradientUnits="userSpaceOnUse">
<stop stop-color="#FFC444"/>
<stop offset="0.9964" stop-color="#F36F56"/>
</linearGradient>
<linearGradient id="paint18_linear_9_57" x1="198.16" y1="250.504" x2="209.265" y2="316.003" gradientUnits="userSpaceOnUse">
<stop stop-color="#AB316D"/>
<stop offset="1" stop-color="#792D3D"/>
</linearGradient>
<linearGradient id="paint19_linear_9_57" x1="214.465" y1="328.042" x2="230.293" y2="276.934" gradientUnits="userSpaceOnUse">
<stop stop-color="#AB316D"/>
<stop offset="1" stop-color="#792D3D"/>
</linearGradient>
<linearGradient id="paint20_linear_9_57" x1="214.467" y1="328.042" x2="230.295" y2="276.935" gradientUnits="userSpaceOnUse">
<stop stop-color="#AB316D"/>
<stop offset="1" stop-color="#792D3D"/>
</linearGradient>
<linearGradient id="paint21_linear_9_57" x1="237.567" y1="243.901" x2="248.646" y2="309.249" gradientUnits="userSpaceOnUse">
<stop stop-color="#AB316D"/>
<stop offset="1" stop-color="#792D3D"/>
</linearGradient>
<linearGradient id="paint22_linear_9_57" x1="220.913" y1="203.376" x2="322.747" y2="241.422" gradientUnits="userSpaceOnUse">
<stop stop-color="#FF9085"/>
<stop offset="1" stop-color="#FB6FBB"/>
</linearGradient>
<linearGradient id="paint23_linear_9_57" x1="255.901" y1="201.274" x2="249.406" y2="171.204" gradientUnits="userSpaceOnUse">
<stop stop-color="#FFC444"/>
<stop offset="0.9964" stop-color="#F36F56"/>
</linearGradient>
<linearGradient id="paint24_linear_9_57" x1="251.635" y1="175.053" x2="258.564" y2="211.466" gradientUnits="userSpaceOnUse">
<stop stop-color="#FFC444"/>
<stop offset="0.9964" stop-color="#F36F56"/>
</linearGradient>
<linearGradient id="paint25_linear_9_57" x1="217.841" y1="243.048" x2="262.563" y2="243.048" gradientUnits="userSpaceOnUse">
<stop stop-color="#40447E"/>
<stop offset="0.9964" stop-color="#3C3B6B"/>
</linearGradient>
<linearGradient id="paint26_linear_9_57" x1="189.242" y1="215.398" x2="217.98" y2="244.483" gradientUnits="userSpaceOnUse">
<stop stop-color="#40447E"/>
<stop offset="0.9964" stop-color="#3C3B6B"/>
</linearGradient>
<linearGradient id="paint27_linear_9_57" x1="189.242" y1="215.398" x2="217.98" y2="244.483" gradientUnits="userSpaceOnUse">
<stop stop-color="#40447E"/>
<stop offset="0.9964" stop-color="#3C3B6B"/>
</linearGradient>
<linearGradient id="paint28_linear_9_57" x1="282.901" y1="201.725" x2="275.382" y2="244.295" gradientUnits="userSpaceOnUse">
<stop stop-color="#FF9085"/>
<stop offset="1" stop-color="#FB6FBB"/>
</linearGradient>
<linearGradient id="paint29_linear_9_57" x1="245.848" y1="234.405" x2="260.434" y2="248.428" gradientUnits="userSpaceOnUse">
<stop stop-color="#FFC444"/>
<stop offset="0.9964" stop-color="#F36F56"/>
</linearGradient>
<linearGradient id="paint30_linear_9_57" x1="192.712" y1="-13.1298" x2="97.1204" y2="146.305" gradientUnits="userSpaceOnUse">
<stop stop-color="#FF9085"/>
<stop offset="1" stop-color="#FB6FBB"/>
</linearGradient>
<linearGradient id="paint31_linear_9_57" x1="104.255" y1="72.8263" x2="82.6244" y2="141.695" gradientUnits="userSpaceOnUse">
<stop stop-color="#AA80F9"/>
<stop offset="0.9964" stop-color="#6165D7"/>
</linearGradient>
<linearGradient id="paint32_linear_9_57" x1="124.477" y1="96.0508" x2="112.481" y2="134.245" gradientUnits="userSpaceOnUse">
<stop stop-color="#AA80F9"/>
<stop offset="0.9964" stop-color="#6165D7"/>
</linearGradient>
<linearGradient id="paint33_linear_9_57" x1="146.56" y1="107.091" x2="139.129" y2="130.751" gradientUnits="userSpaceOnUse">
<stop stop-color="#AA80F9"/>
<stop offset="0.9964" stop-color="#6165D7"/>
</linearGradient>
<linearGradient id="paint34_linear_9_57" x1="181.547" y1="45.1281" x2="148.307" y2="150.96" gradientUnits="userSpaceOnUse">
<stop stop-color="#AA80F9"/>
<stop offset="0.9964" stop-color="#6165D7"/>
</linearGradient>
<linearGradient id="paint35_linear_9_57" x1="203.319" y1="54.1455" x2="173.803" y2="148.121" gradientUnits="userSpaceOnUse">
<stop stop-color="#AA80F9"/>
<stop offset="0.9964" stop-color="#6165D7"/>
</linearGradient>
<linearGradient id="paint36_linear_9_57" x1="228.997" y1="39.8307" x2="193.497" y2="152.856" gradientUnits="userSpaceOnUse">
<stop stop-color="#AA80F9"/>
<stop offset="0.9964" stop-color="#6165D7"/>
</linearGradient>
<linearGradient id="paint37_linear_9_57" x1="247.596" y1="62.7503" x2="221.605" y2="145.501" gradientUnits="userSpaceOnUse">
<stop stop-color="#AA80F9"/>
<stop offset="0.9964" stop-color="#6165D7"/>
</linearGradient>
<linearGradient id="paint38_linear_9_57" x1="265.492" y1="87.8053" x2="249.9" y2="137.451" gradientUnits="userSpaceOnUse">
<stop stop-color="#AA80F9"/>
<stop offset="0.9964" stop-color="#6165D7"/>
</linearGradient>
<linearGradient id="paint39_linear_9_57" x1="191.872" y1="149.668" x2="179.409" y2="162.163" gradientUnits="userSpaceOnUse">
<stop stop-color="#FFC444"/>
<stop offset="0.9964" stop-color="#F36F56"/>
</linearGradient>
<linearGradient id="paint40_linear_9_57" x1="129.172" y1="162.524" x2="226.388" y2="162.524" gradientUnits="userSpaceOnUse">
<stop offset="0.0036" stop-color="#E38DDD"/>
<stop offset="1" stop-color="#9571F6"/>
</linearGradient>
<linearGradient id="paint41_linear_9_57" x1="87.443" y1="341.252" x2="74.4304" y2="342.448" gradientUnits="userSpaceOnUse">
<stop stop-color="#444B8C"/>
<stop offset="0.9964" stop-color="#26264F"/>
</linearGradient>
<linearGradient id="paint42_linear_9_57" x1="79.9766" y1="341.773" x2="73.6284" y2="330.448" gradientUnits="userSpaceOnUse">
<stop stop-color="#FFC444"/>
<stop offset="0.9964" stop-color="#F36F56"/>
</linearGradient>
<linearGradient id="paint43_linear_9_57" x1="132.493" y1="339.066" x2="118.953" y2="342.082" gradientUnits="userSpaceOnUse">
<stop stop-color="#444B8C"/>
<stop offset="0.9964" stop-color="#26264F"/>
</linearGradient>
<linearGradient id="paint44_linear_9_57" x1="124.097" y1="340.726" x2="116.749" y2="329.671" gradientUnits="userSpaceOnUse">
<stop stop-color="#FFC444"/>
<stop offset="0.9964" stop-color="#F36F56"/>
</linearGradient>
<linearGradient id="paint45_linear_9_57" x1="129.145" y1="316.706" x2="97.7343" y2="232.639" gradientUnits="userSpaceOnUse">
<stop stop-color="#311944"/>
<stop offset="1" stop-color="#893976"/>
</linearGradient>
<linearGradient id="paint46_linear_9_57" x1="123.275" y1="318.899" x2="91.8635" y2="234.833" gradientUnits="userSpaceOnUse">
<stop stop-color="#311944"/>
<stop offset="1" stop-color="#893976"/>
</linearGradient>
<linearGradient id="paint47_linear_9_57" x1="108.299" y1="321.24" x2="66.8819" y2="241.44" gradientUnits="userSpaceOnUse">
<stop stop-color="#311944"/>
<stop offset="1" stop-color="#893976"/>
</linearGradient>
<linearGradient id="paint48_linear_9_57" x1="78.5246" y1="136.624" x2="92.1015" y2="364.271" gradientUnits="userSpaceOnUse">
<stop offset="0.0036" stop-color="#E38DDD"/>
<stop offset="1" stop-color="#9571F6"/>
</linearGradient>
<linearGradient id="paint49_linear_9_57" x1="77.9209" y1="146.3" x2="96.0157" y2="112.594" gradientUnits="userSpaceOnUse">
<stop stop-color="#FFC444"/>
<stop offset="0.9964" stop-color="#F36F56"/>
</linearGradient>
<linearGradient id="paint50_linear_9_57" x1="79.8714" y1="136.063" x2="90.6228" y2="111.808" gradientUnits="userSpaceOnUse">
<stop stop-color="#311944"/>
<stop offset="1" stop-color="#6B3976"/>
</linearGradient>
<linearGradient id="paint51_linear_9_57" x1="89.4262" y1="118.756" x2="89.3977" y2="154.651" gradientUnits="userSpaceOnUse">
<stop stop-color="#FFC444"/>
<stop offset="0.9964" stop-color="#F36F56"/>
</linearGradient>
<linearGradient id="paint52_linear_9_57" x1="82.8271" y1="137.387" x2="93.5897" y2="113.106" gradientUnits="userSpaceOnUse">
<stop stop-color="#311944"/>
<stop offset="1" stop-color="#6B3976"/>
</linearGradient>
<linearGradient id="paint53_linear_9_57" x1="93.2492" y1="123.036" x2="92.5362" y2="127.506" gradientUnits="userSpaceOnUse">
<stop stop-color="#FFC444"/>
<stop offset="1" stop-color="#F36F56"/>
</linearGradient>
<linearGradient id="paint54_linear_9_57" x1="51.9934" y1="200.303" x2="54.5283" y2="208.197" gradientUnits="userSpaceOnUse">
<stop stop-color="#FFC444"/>
<stop offset="0.9964" stop-color="#F36F56"/>
</linearGradient>
<linearGradient id="paint55_linear_9_57" x1="24.6991" y1="139.834" x2="38.276" y2="367.482" gradientUnits="userSpaceOnUse">
<stop offset="0.0036" stop-color="#E38DDD"/>
<stop offset="1" stop-color="#9571F6"/>
</linearGradient>
<linearGradient id="paint56_linear_9_57" x1="77.7974" y1="136.667" x2="91.3744" y2="364.315" gradientUnits="userSpaceOnUse">
<stop offset="0.0036" stop-color="#E38DDD"/>
<stop offset="1" stop-color="#9571F6"/>
</linearGradient>
<linearGradient id="paint57_linear_9_57" x1="87.3859" y1="120.829" x2="89.36" y2="150.335" gradientUnits="userSpaceOnUse">
<stop stop-color="#311944"/>
<stop offset="1" stop-color="#6B3976"/>
</linearGradient>
<linearGradient id="paint58_linear_9_57" x1="81.8255" y1="179.602" x2="81.8255" y2="113.337" gradientUnits="userSpaceOnUse">
<stop stop-color="#311944"/>
<stop offset="1" stop-color="#6B3976"/>
</linearGradient>
<linearGradient id="paint59_linear_9_57" x1="224.5" y1="53.0708" x2="186.468" y2="191.104" gradientUnits="userSpaceOnUse">
<stop stop-color="#311944"/>
<stop offset="1" stop-color="#A03976"/>
</linearGradient>
<linearGradient id="paint60_linear_9_57" x1="192.721" y1="142.762" x2="168.237" y2="200.297" gradientUnits="userSpaceOnUse">
<stop stop-color="#FFC444"/>
<stop offset="0.9964" stop-color="#F36F56"/>
</linearGradient>
<linearGradient id="paint61_linear_9_57" x1="297.261" y1="224.914" x2="278.748" y2="337.036" gradientUnits="userSpaceOnUse">
<stop stop-color="#FCB148"/>
<stop offset="0.0521" stop-color="#FDBA46"/>
<stop offset="0.1424" stop-color="#FFC244"/>
<stop offset="0.3183" stop-color="#FFC444"/>
<stop offset="0.4849" stop-color="#FDB946"/>
<stop offset="0.7754" stop-color="#F99C4D"/>
<stop offset="0.8658" stop-color="#F8924F"/>
<stop offset="1" stop-color="#F8924F"/>
</linearGradient>
<linearGradient id="paint62_linear_9_57" x1="282.044" y1="322.891" x2="279.29" y2="495.109" gradientUnits="userSpaceOnUse">
<stop stop-color="#FCB148"/>
<stop offset="0.0521" stop-color="#FDBA46"/>
<stop offset="0.1424" stop-color="#FFC244"/>
<stop offset="0.3183" stop-color="#FFC444"/>
<stop offset="0.4849" stop-color="#FDB946"/>
<stop offset="0.7754" stop-color="#F99C4D"/>
<stop offset="0.8658" stop-color="#F8924F"/>
<stop offset="1" stop-color="#F8924F"/>
</linearGradient>
<linearGradient id="paint63_linear_9_57" x1="378.024" y1="363.627" x2="397.011" y2="433.531" gradientUnits="userSpaceOnUse">
<stop stop-color="#311944"/>
<stop offset="1" stop-color="#893976"/>
</linearGradient>
<linearGradient id="paint64_linear_9_57" x1="395.564" y1="412.911" x2="395.839" y2="389.394" gradientUnits="userSpaceOnUse">
<stop stop-color="#FFC444"/>
<stop offset="0.9964" stop-color="#F36F56"/>
</linearGradient>
<linearGradient id="paint65_linear_9_57" x1="402.698" y1="356.925" x2="421.685" y2="426.829" gradientUnits="userSpaceOnUse">
<stop stop-color="#311944"/>
<stop offset="1" stop-color="#893976"/>
</linearGradient>
<linearGradient id="paint66_linear_9_57" x1="423.307" y1="413.235" x2="423.582" y2="389.718" gradientUnits="userSpaceOnUse">
<stop stop-color="#FFC444"/>
<stop offset="0.9964" stop-color="#F36F56"/>
</linearGradient>
<linearGradient id="paint67_linear_9_57" x1="381.735" y1="337.28" x2="407.28" y2="337.28" gradientUnits="userSpaceOnUse">
<stop stop-color="#444B8C"/>
<stop offset="0.9964" stop-color="#26264F"/>
</linearGradient>
<linearGradient id="paint68_linear_9_57" x1="381.735" y1="337.28" x2="407.28" y2="337.28" gradientUnits="userSpaceOnUse">
<stop stop-color="#444B8C"/>
<stop offset="0.9964" stop-color="#26264F"/>
</linearGradient>
<linearGradient id="paint69_linear_9_57" x1="396.157" y1="340.857" x2="434.934" y2="340.857" gradientUnits="userSpaceOnUse">
<stop stop-color="#444B8C"/>
<stop offset="0.9964" stop-color="#26264F"/>
</linearGradient>
<linearGradient id="paint70_linear_9_57" x1="305.661" y1="235.611" x2="329.164" y2="260.018" gradientUnits="userSpaceOnUse">
<stop stop-color="#311944"/>
<stop offset="1" stop-color="#893976"/>
</linearGradient>
<linearGradient id="paint71_linear_9_57" x1="474.093" y1="345.367" x2="389.867" y2="222.001" gradientUnits="userSpaceOnUse">
<stop stop-color="#AA80F9"/>
<stop offset="0.9964" stop-color="#6165D7"/>
</linearGradient>
<linearGradient id="paint72_linear_9_57" x1="389.987" y1="209.776" x2="403.519" y2="189.468" gradientUnits="userSpaceOnUse">
<stop stop-color="#311944"/>
<stop offset="1" stop-color="#893976"/>
</linearGradient>
<linearGradient id="paint73_linear_9_57" x1="401.17" y1="201.932" x2="391.175" y2="176.034" gradientUnits="userSpaceOnUse">
<stop stop-color="#444B8C"/>
<stop offset="0.9964" stop-color="#3E4177"/>
</linearGradient>
<linearGradient id="paint74_linear_9_57" x1="399.459" y1="172.177" x2="393.421" y2="186.902" gradientUnits="userSpaceOnUse">
<stop stop-color="#311944"/>
<stop offset="1" stop-color="#893976"/>
</linearGradient>
<linearGradient id="paint75_linear_9_57" x1="428.037" y1="304.88" x2="428.343" y2="278.619" gradientUnits="userSpaceOnUse">
<stop stop-color="#311944"/>
<stop offset="1" stop-color="#893976"/>
</linearGradient>
<linearGradient id="paint76_linear_9_57" x1="430.965" y1="289.255" x2="431.093" y2="278.348" gradientUnits="userSpaceOnUse">
<stop stop-color="#311944"/>
<stop offset="1" stop-color="#893976"/>
</linearGradient>
<linearGradient id="paint77_linear_9_57" x1="401.503" y1="295.073" x2="408.118" y2="275.952" gradientUnits="userSpaceOnUse">
<stop stop-color="#40447E"/>
<stop offset="0.9964" stop-color="#3C3B6B"/>
</linearGradient>
<linearGradient id="paint78_linear_9_57" x1="431.451" y1="267.49" x2="429.034" y2="284.526" gradientUnits="userSpaceOnUse">
<stop stop-color="#40447E"/>
<stop offset="0.9964" stop-color="#3C3B6B"/>
</linearGradient>
<linearGradient id="paint79_linear_9_57" x1="381.645" y1="268.981" x2="394.655" y2="250.133" gradientUnits="userSpaceOnUse">
<stop stop-color="#40447E"/>
<stop offset="0.9964" stop-color="#3C3B6B"/>
</linearGradient>
<linearGradient id="paint80_linear_9_57" x1="407.282" y1="299.767" x2="378.965" y2="241.084" gradientUnits="userSpaceOnUse">
<stop stop-color="#40447E"/>
<stop offset="0.9964" stop-color="#3C3B6B"/>
</linearGradient>
<linearGradient id="paint81_linear_9_57" x1="421.57" y1="262.391" x2="357.314" y2="262.391" gradientUnits="userSpaceOnUse">
<stop stop-color="#40447E"/>
<stop offset="0.9964" stop-color="#3C3B6B"/>
</linearGradient>
</defs>
</svg>
